<svg xmlns="http://www.w3.org/2000/svg" width="128" height="30" viewBox="0 0 128 30" fill="none">
<g clip-path="url(#clip0_1_3595)">
<path d="M78.0473 12.8343C80.5813 2.46246 88.8981 -0.754159 95.4636 0.471731C102.93 1.8656 108.037 8.75632 107.379 16.1081C106.725 23.442 100.735 29.3499 93.7051 29.5965C84.7915 29.911 79.577 24.7894 77.8901 14.0638C77.3861 14.339 77.4826 14.8858 77.3683 15.2968C76.2782 19.2497 73.8621 21.9909 69.9772 23.3276C68.6441 23.7851 67.94 24.4391 68.2473 25.9116C68.3188 26.2512 68.2581 26.6229 68.2116 26.9767C68.0365 28.3313 67.7863 29.6 65.9671 29.5893C64.2444 29.5786 63.6869 28.2705 63.837 27.0911C64.173 24.4749 62.8184 23.6064 60.7062 22.6486C56.4995 20.7365 54.448 17.1839 54.373 12.5627C54.3194 9.35676 54.373 6.14728 54.348 2.94138C54.3372 1.47961 54.5981 0.318048 56.428 0.318048C58.3366 0.318048 58.3902 1.60827 58.4152 2.99857C58.4724 6.26523 58.5331 9.52831 58.6547 12.7914C58.8012 16.6621 62.0536 19.7536 65.985 19.8322C69.6627 19.9073 73.1902 16.7586 73.3725 13.0273C73.5405 9.64983 73.4726 6.25808 73.519 2.87348C73.5333 1.83343 73.6406 0.814838 74.8414 0.410973C76.439 -0.128705 77.6435 0.718339 77.6899 2.54109C77.7578 5.33241 77.7078 8.12372 77.7364 10.915C77.7435 11.4905 77.6042 12.1016 78.0473 12.8379V12.8343ZM92.7652 4.59258C87.0825 4.56756 82.3004 9.29957 82.3004 14.9465C82.3004 20.5256 87.0289 25.279 92.5936 25.2933C98.4657 25.3076 103.098 20.8615 103.18 15.1217C103.266 9.29957 98.6373 4.62117 92.7616 4.59616L92.7652 4.59258Z" fill="#161326"/>
<path d="M24.7479 12.4482C26.1846 5.04998 31.9495 0.285805 39.4442 0.296527C46.3457 0.307249 52.3929 5.1715 53.6331 11.7155C55.2665 20.3432 50.1985 28.0167 41.8782 29.4963C33.565 30.976 26.3848 25.7722 24.7336 17.073C24.78 16.6334 24.73 16.2152 24.4905 15.8364C24.487 15.5505 24.4798 15.2645 24.4727 14.9786C24.5656 14.1352 24.6549 13.2917 24.7479 12.4518V12.4482ZM39.3084 25.2933C45.0305 25.2933 49.7267 20.6113 49.7303 14.9071C49.7303 9.33524 44.984 4.58536 39.4192 4.59608C33.5864 4.6068 28.8258 9.18155 28.7972 14.7999C28.7651 20.597 33.4685 25.2897 39.3084 25.2933Z" fill="#161326"/>
<path d="M117.601 29.5715C114.584 29.7752 112.018 28.6994 109.784 26.7551C109.298 26.3334 108.848 25.8295 108.519 25.2826C107.869 24.1997 107.905 23.1025 108.891 22.2233C109.824 21.3941 110.871 21.5013 111.832 22.1839C112.508 22.6629 113.083 23.274 113.727 23.803C115.857 25.5471 118.502 25.7401 120.653 24.2783C122.136 23.2705 122.983 21.8587 122.733 20.0431C122.487 18.2382 121.221 17.2661 119.524 16.8908C117.901 16.5334 116.25 16.3154 114.627 15.9759C110.01 15.0073 107.443 11.7442 107.862 7.40893C108.04 5.54329 108.952 4.03862 110.296 2.79486C113.88 -0.521835 120.767 -0.625482 124.431 2.5697C125.36 3.37743 126.136 4.29595 125.657 5.65408C125.11 7.20163 123.502 7.64124 121.997 6.5869C120.421 5.48253 118.873 4.43891 116.811 4.59617C115.767 4.6748 114.824 4.97502 113.988 5.55758C112.108 6.8621 112.029 9.0637 113.791 10.5112C114.928 11.444 116.289 11.8407 117.701 12.1052C118.866 12.3232 120.053 12.4733 121.189 12.7914C125.646 14.0459 127.937 17.409 127.426 21.8444C126.926 26.1797 123.394 29.4356 119.027 29.575C118.552 29.5893 118.076 29.575 117.604 29.575L117.601 29.5715Z" fill="#161326"/>
<path d="M24.1687 14.5998C22.9035 19.0673 20.3088 22.2875 15.709 23.6278C14.8834 23.8672 14.6296 24.4319 14.6475 25.2361C14.6618 26.0653 14.6368 26.898 14.5653 27.7236C14.4652 28.8852 13.8791 29.5642 12.6246 29.5821C11.3415 29.6 10.3408 28.9852 10.4909 27.7558C10.8698 24.6213 9.09348 23.5634 6.59524 22.3518C2.79963 20.5112 0.969725 17.023 0.866079 12.777C0.78745 9.57112 0.841061 6.36522 0.855357 3.15575C0.858931 1.82264 0.808894 0.425193 2.71742 0.328694C4.31859 0.246491 5.02267 1.00418 5.07985 3.1486C5.16206 6.3545 5.09415 9.56397 5.17635 12.7663C5.26928 16.3868 8.28933 19.4962 11.942 19.8357C15.3552 20.1538 19.0793 17.484 19.7405 14.0958C20.2766 11.3474 20.2159 8.54538 20.1408 5.75406C20.1086 4.62825 20.1158 3.49885 20.1372 2.36946C20.1587 1.14357 20.6233 0.328694 22.0207 0.300102C23.4146 0.271509 24.1866 0.918408 24.2188 2.28011C24.301 5.66114 24.3188 9.04217 24.3653 12.4232C23.9864 13.1201 24.2045 13.8707 24.1687 14.5962V14.5998Z" fill="#161326"/>
<path d="M24.4902 15.8329C24.7297 16.2153 24.7833 16.6335 24.7333 17.0695C24.6511 16.6585 24.5724 16.2439 24.4902 15.8329Z" fill="#03D1C8"/>
</g>
<defs>
<clipPath id="clip0_1_3595">
<rect width="126.671" height="29.5214" fill="white" transform="translate(0.823242 0.225098)"/>
</clipPath>
</defs>
</svg>

