<svg width="35" height="41" viewBox="0 0 35 41" fill="none" xmlns="http://www.w3.org/2000/svg">
<path d="M10.6465 40.6094C0.490234 30.5312 0.490234 14.0469 10.6465 3.96875C11.1152 3.5 11.7402 3.42188 12.2871 3.73438L17.3652 6.9375C17.7559 7.17188 17.9902 7.5625 17.9902 8.03125C17.9902 8.1875 17.9902 8.42188 17.9121 8.57812L15.334 14.9062C15.1777 15.375 14.709 15.6875 14.084 15.6875H14.0059L9.63086 15.2969C7.99023 19.8281 7.99023 24.8281 9.63086 29.2812L14.0059 28.8906H14.084C14.709 28.8906 15.1777 29.2031 15.334 29.6719L17.9121 36C17.9902 36.1562 17.9902 36.3906 17.9902 36.5469C17.9902 37.0156 17.7559 37.4062 17.3652 37.6406L12.2871 40.8438C12.0527 41 11.8184 41 11.584 41C11.1934 41 10.8809 40.9219 10.6465 40.6094ZM22.3652 8.5C23.2246 10.0625 23.2246 12.0156 22.3652 13.5781C22.0527 14.125 21.3496 14.2031 20.8809 13.8125L20.4121 13.3438C20.0996 13.0312 20.0215 12.5625 20.2559 12.1719C20.4121 11.8594 20.4902 11.4688 20.4902 11.0781C20.4902 10.6094 20.4121 10.2188 20.2559 9.90625C20.0215 9.51562 20.0996 9.04688 20.4121 8.73438L20.8809 8.26562C21.3496 7.875 22.0527 7.95312 22.3652 8.5ZM29.4746 1.39062C34.2402 6.9375 34.2402 15.1406 29.4746 20.6875C29.1621 21.1562 28.5371 21.1562 28.1465 20.7656L27.6777 20.375C27.3652 19.9844 27.2871 19.4375 27.5996 19.0469C31.5059 14.4375 31.5059 7.64062 27.5996 3.03125C27.2871 2.64062 27.3652 2.09375 27.6777 1.70312L28.1465 1.3125C28.5371 0.921875 29.1621 0.921875 29.4746 1.39062ZM25.8809 4.90625C28.6934 8.5 28.7715 13.5781 25.8809 17.1719C25.5684 17.6406 24.9434 17.7188 24.5527 17.3281L24.084 16.8594C23.6934 16.5469 23.6934 16 23.9277 15.6094C26.0371 12.9531 26.0371 9.125 23.9277 6.46875C23.6934 6.07812 23.6934 5.53125 24.084 5.21875L24.5527 4.75C24.9434 4.35938 25.5684 4.4375 25.8809 4.90625Z" fill="#01B5B2"/>
</svg>
