<svg width="41" height="34" viewBox="0 0 41 34" fill="none" xmlns="http://www.w3.org/2000/svg">
<path d="M0.376465 10.125V8.875C0.376465 7.85938 1.15771 7 2.25146 7H30.3765V3.25C30.3765 1.60938 32.3296 0.75 33.5015 2L39.7515 8.25C40.5327 8.95312 40.5327 10.125 39.7515 10.8281L33.5015 17.0781C32.3296 18.25 30.3765 17.4688 30.3765 15.75V12H2.25146C1.15771 12 0.376465 11.2188 0.376465 10.125ZM38.5015 22C39.5171 22 40.3765 22.8594 40.3765 23.875V25.125C40.3765 26.2188 39.5171 27 38.5015 27H10.3765V30.75C10.3765 32.4688 8.34521 33.25 7.17334 32.0781L0.92334 25.8281C0.14209 25.125 0.14209 23.9531 0.92334 23.25L7.17334 17C8.34521 15.75 10.3765 16.6094 10.3765 18.25V22H38.5015Z" fill="#01B5B2"/>
</svg>
