<svg width="51" height="40" viewBox="0 0 51 40" fill="none" xmlns="http://www.w3.org/2000/svg">
<path d="M49.4385 27.5C50.0635 27.5 50.6885 28.125 50.6885 28.75V31.25C50.6885 31.9531 50.0635 32.5 49.4385 32.5H45.6885C45.6885 36.6406 42.3291 40 38.1885 40C34.0479 40 30.6885 36.6406 30.6885 32.5H20.6885C20.6885 36.6406 17.3291 40 13.1885 40C9.04785 40 5.68848 36.6406 5.68848 32.5V22.5H17.5635C17.876 22.5 18.1885 22.2656 18.1885 21.875V20.625C18.1885 20.3125 17.876 20 17.5635 20H1.31348C0.922852 20 0.688477 19.7656 0.688477 19.375V18.125C0.688477 17.8125 0.922852 17.5 1.31348 17.5H20.0635C20.376 17.5 20.6885 17.2656 20.6885 16.875V15.625C20.6885 15.3125 20.376 15 20.0635 15H3.81348C3.42285 15 3.18848 14.7656 3.18848 14.375V13.125C3.18848 12.8125 3.42285 12.5 3.81348 12.5H22.5635C22.876 12.5 23.1885 12.2656 23.1885 11.875V10.625C23.1885 10.3125 22.876 10 22.5635 10H1.31348C0.922852 10 0.688477 9.76562 0.688477 9.375V8.125C0.688477 7.8125 0.922852 7.5 1.31348 7.5H5.68848V3.75C5.68848 1.71875 7.3291 0 9.43848 0H29.4385C31.4697 0 33.1885 1.71875 33.1885 3.75V7.5H36.626C37.5635 7.5 38.5791 7.96875 39.2822 8.67188L47.0166 16.4062C47.7197 17.1094 48.1885 18.125 48.1885 19.0625V27.5H49.4385ZM13.1885 36.25C15.2197 36.25 16.9385 34.6094 16.9385 32.5C16.9385 30.4688 15.2197 28.75 13.1885 28.75C11.0791 28.75 9.43848 30.4688 9.43848 32.5C9.43848 34.6094 11.0791 36.25 13.1885 36.25ZM38.1885 36.25C40.2197 36.25 41.9385 34.6094 41.9385 32.5C41.9385 30.4688 40.2197 28.75 38.1885 28.75C36.0791 28.75 34.4385 30.4688 34.4385 32.5C34.4385 34.6094 36.0791 36.25 38.1885 36.25ZM44.4385 20V19.0625L36.626 11.25H33.1885V20H44.4385Z" fill="#01B5B2"/>
</svg>
