<svg xmlns="http://www.w3.org/2000/svg" width="120" height="83" viewBox="0 0 120 83" fill="none">
  <g clip-path="url(#clip0_1_3633)">
    <path d="M5.84753 64.5493C5.87571 64.5773 5.90388 64.5789 5.93363 64.5524C6.13713 64.5773 6.34063 64.6194 6.54413 64.6225C8.79987 64.6521 11.076 64.4294 13.2753 65.1628L13.2675 65.1582C13.3176 65.2158 13.3583 65.2843 13.4178 65.3279C16.4296 67.5312 16.9431 70.3091 14.8767 73.3969C14.6106 73.7956 14.7421 74.026 14.9879 74.3296C16.3247 75.974 16.3921 77.8363 15.6626 79.6893C14.9441 81.5174 13.4632 82.5357 11.4955 82.7864C9.83303 82.9998 8.16119 82.8487 6.49404 82.9032C5.8898 82.9235 5.7176 82.679 5.75674 82.1231C5.79431 81.6061 5.80057 81.0829 5.76143 80.5675C5.71447 79.954 5.95554 79.7562 6.56605 79.764C7.92012 79.7812 9.27732 79.7562 10.6314 79.7017C11.2842 79.6753 11.9275 79.5336 12.3721 78.9746C12.956 78.2427 13.0797 77.4626 12.7087 76.5797C12.3361 75.6937 11.5738 75.4523 10.7535 75.4103C9.42603 75.3433 8.09388 75.3449 6.76485 75.376C6.0479 75.3932 5.67534 75.2094 5.77082 74.4168C5.82561 73.9559 5.82405 73.4795 5.77082 73.0185C5.69099 72.321 5.97276 72.1434 6.64901 72.1372C8.15962 72.1248 9.67649 72.2883 11.1793 72.05C12.2437 71.8803 12.8856 71.1266 12.9137 70.0756C12.945 68.9404 12.3705 68.165 11.2732 67.9454C10.766 67.8442 10.24 67.8177 9.72032 67.8068C8.62611 67.785 7.53033 67.7975 6.43455 67.7913C6.08077 67.7897 5.74265 67.7726 5.76456 67.2681C5.80526 66.3634 5.69099 65.4525 5.8444 64.5509L5.84753 64.5493Z" fill="#01B4B0"/>
    <path d="M24.8779 69.7969C24.8779 70.0072 24.8795 70.2189 24.881 70.4291C24.8685 73.8003 24.8591 77.1731 24.8403 80.5443C24.8356 81.2932 25.0877 82.2945 24.7057 82.7258C24.2643 83.2241 23.2295 82.8379 22.4578 82.9173C21.7518 82.9889 21.517 82.7336 21.5233 82.0111C21.553 78.5869 21.5264 75.1628 21.5233 71.7387C21.5217 69.6366 21.5358 67.536 21.5201 65.4339C21.5154 64.8904 21.6751 64.6133 22.2762 64.6491C22.8992 64.6864 23.5285 64.6818 24.1531 64.6537C24.6822 64.6304 24.8701 64.8048 24.8575 65.3638C24.8262 66.8415 24.8654 68.3192 24.8779 69.7969Z" fill="#01B4B0"/>
    <path d="M3.78127 77.5856C3.78127 79.1147 3.76406 80.6422 3.79067 82.1713C3.80006 82.7444 3.59499 82.9624 3.01736 82.9266C2.42094 82.8907 1.81983 82.9079 1.22028 82.9266C0.767883 82.9406 0.553424 82.7708 0.554989 82.2975C0.561251 79.1116 0.55812 75.9241 0.550293 72.7383C0.550293 72.3583 0.700571 72.1497 1.09662 72.1497C1.82609 72.1497 2.55557 72.1606 3.28348 72.1512C3.80006 72.145 3.77814 72.5016 3.77971 72.8441C3.78284 74.4246 3.77971 76.0051 3.77971 77.5856H3.78127Z" fill="#01B4B0"/>
    <path d="M116.548 69.227C116.235 69.227 115.92 69.2052 115.61 69.2316C115.167 69.2706 114.879 69.132 114.688 68.7038C114.506 68.2974 114.192 67.9299 113.768 67.7913C113.137 67.5858 113.027 67.1669 113.073 66.6016C113.098 66.2933 113.069 65.9804 113.071 65.6689C113.076 64.5992 113.171 64.5338 114.168 64.8592C115.773 65.3824 117.144 66.1921 117.883 67.8022C118.454 69.0463 118.348 69.2316 117.017 69.227C116.861 69.227 116.704 69.227 116.548 69.227Z" fill="#01B4B0"/>
    <path d="M2.18907 67.9579C1.26705 67.9642 0.503141 67.2152 0.50001 66.2996C0.496879 65.384 1.24357 64.6226 2.15777 64.6086C3.07039 64.5961 3.86718 65.342 3.89066 66.2311C3.91727 67.2058 3.1831 67.9502 2.18907 67.9579Z" fill="#01B4B0"/>
    <path d="M59.9272 46.2423C52.7029 46.2423 45.4802 46.2298 38.2559 46.2609C37.4653 46.2641 37.2509 46.0523 37.2524 45.2691C37.2759 30.8204 37.2744 16.3703 37.2603 1.92012C37.2603 1.25211 37.3996 0.98584 38.1557 0.98584C52.7342 1.0092 67.3112 1.00608 81.8898 0.988954C82.5958 0.988954 82.7633 1.22719 82.7633 1.89053C82.7492 16.3656 82.7476 30.8422 82.7695 45.3173C82.7695 46.1006 82.4721 46.2641 81.7552 46.2609C74.4792 46.2407 67.2032 46.2485 59.9272 46.2485V46.2423ZM39.6084 2.84972C39.0026 2.70803 39.0558 3.13312 39.0558 3.49749C39.0511 6.16952 39.048 8.84 39.048 11.512C39.0448 22.1472 39.0417 32.7809 39.0401 43.4161C39.0401 44.4578 39.0448 44.4578 40.0576 44.4671C40.2925 44.4687 40.5273 44.4671 40.7621 44.4671C53.8785 44.4671 66.9935 44.4625 80.1099 44.4765C80.7423 44.4765 80.9662 44.3301 80.9599 43.6528C80.9255 39.6073 80.9365 35.5603 80.9365 31.5134C80.9365 22.2017 80.938 12.8901 80.9443 3.57846C80.9443 3.10509 80.9818 2.64107 80.2649 2.84038C80.0567 2.83104 79.8485 2.81235 79.6419 2.81235C67.3394 2.80924 55.0369 2.80768 42.7345 2.80924C41.6935 2.80924 40.6509 2.83571 39.6099 2.84972H39.6084Z" fill="#01B4B0"/>
    <path d="M71.1387 82.8785C64.6313 82.8068 60.1559 76.4693 62.5149 70.546C65.018 64.263 72.7197 62.832 77.3518 67.1515C78.0828 67.8335 78.0734 67.9145 77.3173 68.4844C76.8211 68.8581 76.3577 69.414 75.802 69.5354C75.1837 69.6709 74.808 68.9079 74.2945 68.5825C72.2908 67.3103 69.398 67.4458 67.3755 68.9219C65.3138 70.4277 64.4998 73.0078 65.2481 75.6659C65.8461 77.7913 68.0486 79.5415 70.3576 79.7813C72.139 79.9666 73.7263 79.5618 75.0584 78.3535C75.5296 77.9252 75.9163 77.8832 76.3828 78.3239C76.6645 78.5901 76.9995 78.7988 77.3017 79.0433C78.0437 79.6459 78.0687 79.8312 77.3251 80.4478C75.503 81.9582 73.4743 82.9766 71.1371 82.8769L71.1387 82.8785Z" fill="#01B4B0"/>
    <path d="M51.0733 82.8799C47.3101 82.8441 43.8317 80.4897 42.4996 77.0734C41.1627 73.6477 42.1521 69.5431 44.9197 67.033C48.3996 63.8783 53.8628 63.9063 57.2973 67.0968C58.0831 67.8271 58.0863 67.8925 57.2503 68.5419C56.7807 68.9062 56.333 69.4107 55.7961 69.5493C55.2122 69.7004 54.8866 68.9685 54.4091 68.6789C52.2238 67.3553 49.9806 67.3117 47.8392 68.6291C45.5599 70.032 44.6191 72.2182 45.0637 74.8311C45.4754 77.254 46.9688 78.8812 49.3764 79.557C51.4364 80.1347 53.3619 79.8435 55.0009 78.3891C55.5253 77.9236 55.9651 77.8659 56.4489 78.3891C56.4833 78.4265 56.5256 78.4592 56.5663 78.4904C58.1176 79.722 58.5574 79.4075 56.6383 80.9786C55.0337 82.2929 53.1553 82.9064 51.0733 82.8768V82.8799Z" fill="#01B4B0"/>
    <path d="M83.5772 74.769C83.8386 74.769 84.1016 74.7939 84.3584 74.7643C84.9109 74.702 85.1301 74.9745 85.2772 75.4743C85.9911 77.8848 88.2139 79.593 90.6998 79.6864C93.3375 79.786 95.6903 78.341 96.5465 75.8776C96.8847 74.9044 97.3778 74.7223 98.2826 74.7487C100.253 74.8048 100.255 74.7659 99.6132 76.6406C98.2591 80.6035 94.6508 83.0529 90.4493 82.866C86.5624 82.6932 83.0669 79.7954 82.159 75.996C81.8694 74.7845 81.8741 74.7783 83.1076 74.7752C83.2641 74.7752 83.4207 74.7752 83.5772 74.7752V74.769Z" fill="#01B4B0"/>
    <path d="M82.5019 70.1332C82.9245 69.4901 83.2939 68.8066 83.7776 68.2133C86.2259 65.2143 89.4006 64.0542 93.1622 64.9636C96.8362 65.8511 99.0168 68.3363 99.92 71.9597C100.048 72.4752 99.9623 72.6932 99.3111 72.7741C97.7066 72.975 96.8503 72.5001 96.1756 70.8916C95.3084 68.8284 93.4174 67.8007 91.1053 67.7539C88.7196 67.7057 86.982 68.8112 85.7641 70.7935C85.5763 71.0987 85.3916 71.4428 85.343 71.7885C85.2272 72.6122 84.7826 72.8785 84.0046 72.7539C83.8262 72.7259 83.6399 72.7508 83.4583 72.7508C81.7786 72.7508 81.7599 72.7259 82.2639 71.108C82.3641 70.7888 82.5379 70.4867 82.5065 70.1348L82.5019 70.1332Z" fill="#01B4B0"/>
    <path d="M111.155 66.1393C111.375 66.9848 110.958 67.4504 109.993 67.7135C109.121 67.9533 108.503 68.6307 108.475 69.579C108.44 70.669 109.243 71.2046 110.117 71.6375C110.45 71.8026 110.99 71.7154 111.084 72.17C111.214 72.8007 111.203 73.4578 111.097 74.1024C111.053 74.364 110.846 74.431 110.624 74.3905C108.877 74.0822 107.197 73.5917 106.078 72.1C104.636 70.1785 105.042 67.7089 106.963 66.1564C107.921 65.3825 109.021 64.959 110.214 64.7347C111.056 64.5775 111.15 64.6616 111.155 65.5382C111.155 65.6939 111.155 65.8497 111.155 66.1393Z" fill="#01B4B0"/>
    <path d="M106.426 77.5671C106.686 77.5671 106.947 77.5842 107.205 77.5639C107.686 77.5281 108.015 77.6418 108.254 78.1354C108.688 79.0308 109.521 79.4917 110.446 79.7408C110.969 79.881 111.185 80.1301 111.152 80.6626C111.119 81.2045 111.142 81.7495 111.138 82.2929C111.135 82.6168 111.055 82.8411 110.64 82.7928C108.509 82.5452 105.928 81.1967 105.036 78.7847C104.644 77.7274 104.774 77.5733 105.881 77.5671C106.063 77.5671 106.246 77.5671 106.427 77.5671H106.426Z" fill="#01B4B0"/>
    <path d="M31.3742 82.8955C30.0733 82.8955 28.7725 82.8831 27.4732 82.9018C26.9738 82.9096 26.7625 82.7196 26.7782 82.2213C26.7985 81.5751 26.7922 80.9273 26.7828 80.2811C26.7766 79.8918 26.9378 79.7299 27.3401 79.7315C29.9669 79.7424 32.5936 79.747 35.2203 79.7346C35.7635 79.7315 35.9498 79.9635 35.9451 80.4804C35.9201 83.3767 36.374 82.8364 33.6362 82.8987C32.8816 82.9158 32.1271 82.9018 31.3742 82.9018V82.8955Z" fill="#01B4B0"/>
    <path d="M31.4087 72.1514C32.6579 72.1514 33.9086 72.1763 35.1578 72.1405C35.7824 72.1233 35.9953 72.3709 35.964 72.9595C35.9358 73.5014 35.939 74.048 35.964 74.5898C35.9859 75.0694 35.8372 75.3061 35.3081 75.3046C32.7048 75.2952 30.1016 75.303 27.4968 75.317C26.9786 75.3201 26.7313 75.1426 26.7689 74.5883C26.8064 74.0215 26.8017 73.4485 26.7689 72.8801C26.7375 72.332 26.9833 72.1483 27.503 72.1545C28.8054 72.1685 30.1063 72.1592 31.4087 72.1592V72.1514Z" fill="#01B4B0"/>
    <path d="M31.4121 64.6616C32.6613 64.6616 33.9105 64.6865 35.1581 64.6507C35.7812 64.6336 35.994 64.8827 35.9627 65.4698C35.9346 65.9852 35.9173 66.5084 35.9674 67.0222C36.0316 67.6778 35.6998 67.8164 35.1393 67.8133C32.6676 67.8008 30.1958 67.7868 27.7241 67.8133C26.9993 67.821 26.6674 67.6108 26.766 66.8401C26.8271 66.3558 26.802 65.8559 26.7723 65.367C26.7394 64.8189 26.9883 64.6414 27.5096 64.6492C28.8104 64.6679 30.1113 64.6554 31.4121 64.6554C31.4121 64.6585 31.4121 64.6601 31.4121 64.6632V64.6616Z" fill="#01B4B0"/>
    <path d="M115.122 82.5C112.816 82.9423 113.14 83.112 113.087 80.8168C113.071 80.1752 113.249 79.8311 113.901 79.6661C114.525 79.5088 115.078 79.1849 115.55 78.71C116.718 77.539 116.496 75.8947 115.028 75.0819C114.683 74.6505 114.168 74.6101 113.688 74.5633C113.213 74.5182 113.065 74.3095 113.087 73.8658C113.182 71.8275 112.681 71.7932 115.084 72.2962C116.635 72.6216 117.969 73.4173 118.803 74.7891C120.17 77.033 119.461 79.7906 117.238 81.3587C116.573 81.8274 115.834 82.1341 115.122 82.5016V82.5Z" fill="#01B4B0"/>
    <path d="M67.4758 27.8276C67.4523 27.7778 67.4132 27.7513 67.3599 27.7482C66.2485 26.7267 64.8428 26.6971 63.4684 26.6707C61.0185 26.6239 58.5671 26.6458 56.1157 26.6644C55.4927 26.6691 55.2187 26.4698 55.2359 25.8127C55.2704 24.4128 55.2766 23.0114 55.2359 21.6115C55.2156 20.875 55.5443 20.6648 56.219 20.6742C57.7562 20.696 59.295 20.6835 60.8338 20.6757C62.3695 20.6679 63.9098 20.7333 65.4314 20.4639C67.3662 20.1214 68.6373 18.6172 68.6717 16.649C68.7077 14.5811 67.5979 13.1859 65.5926 12.7546C64.8757 12.6004 64.154 12.507 63.423 12.5008C60.9982 12.4837 58.5734 12.4525 56.1501 12.4712C55.4598 12.4759 55.225 12.2236 55.2391 11.5618C55.2672 10.2134 55.2829 8.86333 55.2344 7.51641C55.2078 6.77833 55.4504 6.50895 56.2065 6.51985C58.6313 6.55722 61.0561 6.51985 63.4809 6.54788C64.8616 6.56345 66.2329 6.68802 67.576 7.06017C69.5249 7.59894 71.0652 8.74654 72.4381 10.1635C72.4381 10.2663 72.4897 10.3286 72.5899 10.3519C72.6619 10.489 72.7167 10.6385 72.8107 10.7584C75.5376 14.3257 75.0429 20.2179 72.1047 23.2714C71.729 23.6623 71.8182 23.9223 72.1422 24.2431C73.645 25.7411 74.3244 27.5894 74.5608 29.6619C75.1634 34.9593 71.6977 39.6602 66.4097 40.4917C62.8939 41.0445 59.3373 40.6926 55.7979 40.7393C55.2594 40.7456 55.2469 40.3859 55.2485 40.0012C55.2516 38.6528 55.2516 37.3059 55.2532 35.9574C55.2532 34.8876 55.2547 34.8752 56.2988 34.8736C58.4622 34.8705 60.624 34.8814 62.7874 34.8845C63.8049 34.8861 64.8209 34.8316 65.8008 34.5357C67.1893 34.1153 68.1943 33.2682 68.5168 31.8123C68.8471 30.3237 68.7046 28.9238 67.4742 27.8229L67.4758 27.8276Z" fill="#01B4B0"/>
    <path d="M48.5953 12.8138C46.7904 12.8169 45.3737 11.4015 45.3878 9.60924C45.4003 7.88238 46.8452 6.48875 48.6094 6.49809C50.3188 6.50744 51.7261 7.91664 51.7292 9.62325C51.7324 11.3766 50.3251 12.8091 48.5969 12.8138H48.5953Z" fill="#01B4B0"/>
    <path d="M51.5506 30.7271C51.5506 33.7105 51.5522 36.6924 51.5506 39.6759C51.5506 40.7051 51.5115 40.7472 50.5175 40.7519C49.1618 40.7596 47.8062 40.7378 46.4506 40.7565C45.8166 40.7659 45.5771 40.5058 45.5786 39.8721C45.5896 33.7775 45.5865 27.6813 45.5708 21.5851C45.5692 20.8953 45.8213 20.6073 46.5382 20.626C47.9455 20.6618 49.3544 20.654 50.7617 20.6244C51.391 20.6104 51.5819 20.8938 51.5788 21.4668C51.5694 24.553 51.5741 27.6393 51.5741 30.7255C51.5663 30.7255 51.5585 30.7255 51.5506 30.7255V30.7271Z" fill="#01B4B0"/>
  </g>
  <defs>
    <clipPath id="clip0_1_3633">
      <rect width="119" height="82" fill="white" transform="translate(0.5 0.98584)"/>
    </clipPath>
  </defs>
</svg>
