<svg width="95" height="25" viewBox="0 0 95 25" fill="none" xmlns="http://www.w3.org/2000/svg">
<path d="M1.69482 12.218L8.4216 18.9527L21.8989 5.48328" stroke="#01B5B2" stroke-width="1.68367" stroke-linecap="round" stroke-linejoin="round"/>
<path d="M39.4282 5.84302V17.218H37.9204V5.84302H39.4282ZM43.597 10.5696V17.218H42.1517V8.76489H43.5188L43.597 10.5696ZM43.2532 12.6711L42.6517 12.6477C42.6569 12.0696 42.7428 11.5357 42.9095 11.0461C43.0761 10.5514 43.3105 10.1217 43.6126 9.75708C43.9147 9.3925 44.2741 9.11125 44.6907 8.91333C45.1126 8.71021 45.5787 8.60864 46.0892 8.60864C46.5058 8.60864 46.8808 8.66593 47.2142 8.78052C47.5475 8.88989 47.8313 9.06698 48.0657 9.31177C48.3053 9.55656 48.4876 9.87427 48.6126 10.2649C48.7376 10.6503 48.8001 11.1217 48.8001 11.679V17.218H47.347V11.6633C47.347 11.2206 47.2819 10.8665 47.1517 10.6008C47.0215 10.33 46.8313 10.1347 46.5813 10.0149C46.3313 9.88989 46.0241 9.82739 45.6595 9.82739C45.3001 9.82739 44.972 9.90291 44.6751 10.054C44.3834 10.205 44.1308 10.4133 43.9173 10.679C43.709 10.9446 43.5449 11.2493 43.4251 11.593C43.3105 11.9316 43.2532 12.2909 43.2532 12.6711ZM60.286 14.9758C60.286 14.7675 60.2392 14.5748 60.1454 14.3977C60.0569 14.2154 59.872 14.0514 59.5907 13.9055C59.3147 13.7545 58.898 13.6243 58.3407 13.5149C57.872 13.4159 57.4475 13.2987 57.0673 13.1633C56.6923 13.0279 56.372 12.8639 56.1063 12.6711C55.8459 12.4784 55.6454 12.2519 55.5048 11.9915C55.3642 11.731 55.2938 11.4264 55.2938 11.0774C55.2938 10.7441 55.3668 10.429 55.5126 10.1321C55.6636 9.83521 55.8746 9.57218 56.1454 9.34302C56.4215 9.11385 56.7522 8.93416 57.1376 8.80396C57.523 8.67375 57.9527 8.60864 58.4267 8.60864C59.1037 8.60864 59.6819 8.72843 60.161 8.96802C60.6402 9.2076 61.0074 9.52791 61.2626 9.92896C61.5178 10.3248 61.6454 10.7649 61.6454 11.2493H60.2001C60.2001 11.0149 60.1298 10.7883 59.9892 10.5696C59.8537 10.3456 59.6532 10.1607 59.3876 10.0149C59.1272 9.86906 58.8069 9.79614 58.4267 9.79614C58.0256 9.79614 57.7001 9.85864 57.4501 9.98364C57.2053 10.1034 57.0256 10.2571 56.911 10.4446C56.8017 10.6321 56.747 10.83 56.747 11.0383C56.747 11.1946 56.773 11.3352 56.8251 11.4602C56.8824 11.58 56.9813 11.692 57.122 11.7961C57.2626 11.8951 57.4605 11.9889 57.7157 12.0774C57.9709 12.1659 58.2965 12.2545 58.6923 12.343C59.385 12.4993 59.9553 12.6868 60.4032 12.9055C60.8511 13.1243 61.1845 13.3925 61.4032 13.7102C61.622 14.0279 61.7313 14.4133 61.7313 14.8665C61.7313 15.2362 61.6532 15.5748 61.497 15.8821C61.3459 16.1894 61.1246 16.455 60.8329 16.679C60.5465 16.8977 60.2027 17.0696 59.8017 17.1946C59.4058 17.3144 58.9605 17.3743 58.4657 17.3743C57.7209 17.3743 57.0907 17.2415 56.5751 16.9758C56.0595 16.7102 55.6688 16.3665 55.4032 15.9446C55.1376 15.5227 55.0048 15.0774 55.0048 14.6086H56.4579C56.4787 15.0045 56.5933 15.3196 56.8017 15.554C57.01 15.7831 57.2652 15.9472 57.5673 16.0461C57.8694 16.1399 58.1688 16.1868 58.4657 16.1868C58.8616 16.1868 59.1923 16.1347 59.4579 16.0305C59.7287 15.9264 59.9345 15.7831 60.0751 15.6008C60.2157 15.4185 60.286 15.2102 60.286 14.9758ZM67.3688 8.76489V9.87427H62.7985V8.76489H67.3688ZM64.3454 6.71021H65.7907V15.1243C65.7907 15.4107 65.835 15.6269 65.9235 15.7727C66.0121 15.9185 66.1267 16.0149 66.2673 16.0618C66.4079 16.1086 66.559 16.1321 66.7204 16.1321C66.8402 16.1321 66.9652 16.1217 67.0954 16.1008C67.2308 16.0748 67.3324 16.054 67.4001 16.0383L67.4079 17.218C67.2933 17.2545 67.1423 17.2883 66.9548 17.3196C66.7725 17.356 66.5511 17.3743 66.2907 17.3743C65.9366 17.3743 65.611 17.304 65.3142 17.1633C65.0173 17.0227 64.7803 16.7883 64.6032 16.4602C64.4313 16.1269 64.3454 15.679 64.3454 15.1165V6.71021ZM68.7251 13.0852V12.9055C68.7251 12.2961 68.8136 11.731 68.9907 11.2102C69.1678 10.6842 69.423 10.2284 69.7563 9.84302C70.0897 9.45239 70.4933 9.15031 70.9673 8.93677C71.4412 8.71802 71.9725 8.60864 72.561 8.60864C73.1548 8.60864 73.6886 8.71802 74.1626 8.93677C74.6418 9.15031 75.048 9.45239 75.3813 9.84302C75.7199 10.2284 75.9777 10.6842 76.1548 11.2102C76.3319 11.731 76.4204 12.2961 76.4204 12.9055V13.0852C76.4204 13.6946 76.3319 14.2597 76.1548 14.7805C75.9777 15.3014 75.7199 15.7571 75.3813 16.1477C75.048 16.5331 74.6444 16.8352 74.1704 17.054C73.7017 17.2675 73.1704 17.3743 72.5767 17.3743C71.9829 17.3743 71.4491 17.2675 70.9751 17.054C70.5011 16.8352 70.0949 16.5331 69.7563 16.1477C69.423 15.7571 69.1678 15.3014 68.9907 14.7805C68.8136 14.2597 68.7251 13.6946 68.7251 13.0852ZM70.1704 12.9055V13.0852C70.1704 13.5071 70.2199 13.9055 70.3188 14.2805C70.4178 14.6503 70.5662 14.9784 70.7642 15.2649C70.9673 15.5514 71.2199 15.7779 71.522 15.9446C71.8241 16.106 72.1756 16.1868 72.5767 16.1868C72.9725 16.1868 73.3188 16.106 73.6157 15.9446C73.9178 15.7779 74.1678 15.5514 74.3657 15.2649C74.5636 14.9784 74.7121 14.6503 74.811 14.2805C74.9152 13.9055 74.9673 13.5071 74.9673 13.0852V12.9055C74.9673 12.4889 74.9152 12.0956 74.811 11.7258C74.7121 11.3508 74.561 11.0201 74.3579 10.7336C74.16 10.442 73.91 10.2128 73.6079 10.0461C73.311 9.87948 72.9621 9.79614 72.561 9.79614C72.1652 9.79614 71.8162 9.87948 71.5142 10.0461C71.2173 10.2128 70.9673 10.442 70.7642 10.7336C70.5662 11.0201 70.4178 11.3508 70.3188 11.7258C70.2199 12.0956 70.1704 12.4889 70.1704 12.9055ZM81.8157 16.1868C82.1595 16.1868 82.4772 16.1165 82.7688 15.9758C83.0605 15.8352 83.3001 15.6425 83.4876 15.3977C83.6751 15.1477 83.7819 14.8639 83.8079 14.5461H85.1829C85.1569 15.0461 84.9876 15.5123 84.6751 15.9446C84.3678 16.3717 83.9642 16.718 83.4642 16.9836C82.9642 17.2441 82.4147 17.3743 81.8157 17.3743C81.1803 17.3743 80.6256 17.2623 80.1517 17.0383C79.6829 16.8144 79.2923 16.5071 78.9798 16.1165C78.6725 15.7258 78.4407 15.2779 78.2845 14.7727C78.1334 14.2623 78.0579 13.7232 78.0579 13.1555V12.8274C78.0579 12.2597 78.1334 11.7232 78.2845 11.218C78.4407 10.7076 78.6725 10.2571 78.9798 9.86646C79.2923 9.47583 79.6829 9.16854 80.1517 8.94458C80.6256 8.72062 81.1803 8.60864 81.8157 8.60864C82.4772 8.60864 83.0553 8.74406 83.5501 9.01489C84.0449 9.28052 84.4329 9.6451 84.7142 10.1086C85.0006 10.567 85.1569 11.0878 85.1829 11.6711H83.8079C83.7819 11.3222 83.6829 11.0071 83.511 10.7258C83.3444 10.4446 83.1152 10.2206 82.8235 10.054C82.5371 9.88208 82.2011 9.79614 81.8157 9.79614C81.373 9.79614 81.0006 9.88468 80.6985 10.0618C80.4017 10.2336 80.1647 10.468 79.9876 10.7649C79.8157 11.0566 79.6907 11.3821 79.6126 11.7415C79.5397 12.0956 79.5032 12.4576 79.5032 12.8274V13.1555C79.5032 13.5253 79.5397 13.8899 79.6126 14.2493C79.6855 14.6086 79.8079 14.9342 79.9798 15.2258C80.1569 15.5175 80.3938 15.7519 80.6907 15.929C80.9928 16.1008 81.3678 16.1868 81.8157 16.1868ZM88.461 5.21802V17.218H87.0079V5.21802H88.461ZM93.6251 8.76489L89.9376 12.7102L87.8751 14.8508L87.7579 13.3118L89.2345 11.5461L91.8595 8.76489H93.6251ZM92.3048 17.218L89.2892 13.1868L90.0392 11.8977L94.0079 17.218H92.3048Z" fill="#01B5B2"/>
</svg>
