<svg width="23" height="23" viewBox="0 0 19 18" fill="none" xmlns="http://www.w3.org/2000/svg">
<path fill-rule="evenodd" clip-rule="evenodd" d="M5.90074 5.2668V5.26687H4.62095C4.25086 5.26687 3.94233 5.55009 3.91072 5.91882L3.11643 15.1856C3.08075 15.6018 3.40895 15.9593 3.82665 15.9593H15.1045C15.5222 15.9593 15.8504 15.6018 15.8147 15.1856L15.0204 5.91882C14.9888 5.55009 14.6803 5.26687 14.3102 5.26687H13.029V5.2668C13.029 3.29837 11.4333 1.70264 9.46489 1.70264C7.49646 1.70264 5.90074 3.29837 5.90074 5.2668ZM7.32612 5.26679V5.26687H11.6031V5.26679C11.6031 4.08574 10.6457 3.1283 9.46461 3.1283C8.28356 3.1283 7.32612 4.08574 7.32612 5.26679ZM9.46364 10.9694C11.4166 10.9694 13.0027 9.39872 13.0275 7.45166C13.0285 7.43633 13.029 7.42087 13.029 7.40529C13.029 7.01161 12.7098 6.69246 12.3162 6.69246C11.9225 6.69246 11.6033 7.01161 11.6033 7.40529V7.40537H11.6021C11.602 8.58639 10.6446 9.54378 9.46358 9.54378C8.29553 9.54378 7.3462 8.60731 7.32543 7.44422C7.32613 7.43133 7.32648 7.41835 7.32648 7.40529C7.32648 7.01161 7.00733 6.69246 6.61365 6.69246C6.21996 6.69246 5.90082 7.01161 5.90082 7.40529V7.40537H5.90014V7.33664C5.89971 7.35947 5.89949 7.38236 5.89949 7.40529C5.89949 9.37372 7.49521 10.9694 9.46364 10.9694Z" fill="#01B5B2"/>
</svg>
